<?xml version="1.0" encoding="UTF-8"?>
<!DOCTYPE svg PUBLIC "-//W3C//DTD SVG 1.1//EN" "http://www.w3.org/Graphics/SVG/1.1/DTD/svg11.dtd">
<!-- Creator: CorelDRAW 2020 (64 Bit) -->
<svg xmlns="http://www.w3.org/2000/svg" xml:space="preserve" width="40.737mm" height="15.505mm" version="1.1" style="shape-rendering:geometricPrecision; text-rendering:geometricPrecision; image-rendering:optimizeQuality; fill-rule:evenodd; clip-rule:evenodd"
viewBox="0 0 4073.7 1550.5"
 xmlns:xlink="http://www.w3.org/1999/xlink"
 xmlns:xodm="http://www.corel.com/coreldraw/odm/2003">
 <defs>
  <style type="text/css">
   <![CDATA[
    .fil1 {fill:#E75836}
    .fil0 {fill:#01333D;fill-rule:nonzero}
    .fil2 {fill:#E75836;fill-rule:nonzero}
   ]]>
  </style>
 </defs>
 <g id="Camada_x0020_1">
  <metadata id="CorelCorpID_0Corel-Layer"/>
  <g id="_2981789733888">
   <g>
    <path class="fil0" d="M2029.45 866.53l111.76 0 0 -591.82 -127.85 0 -185.42 254.42 -185.42 -254.42 -128.7 0 0 591.82 111.76 0 0 -430.25 188.81 257.81 22.01 0 193.05 -256.96 0 429.4zm687.5 0l121.92 0 -265.86 -593.52 -121.92 0 -265.85 593.52 121.07 0 50.8 -111.76 309.88 0 49.96 111.76zm-94.83 -215.9l-220.14 0 110.07 -252.87 110.07 252.87zm631.62 -375.92l0 339.51c0,101.6 -52.5,163.41 -144.78,163.41 -92.29,0 -153.25,-56.73 -153.25,-163.41l0 -339.51 -110.91 0 0 339.51c0,178.65 121.07,265.01 263.31,265.01 149.02,0 256.54,-89.75 256.54,-265.01l0 -339.51 -110.91 0zm640.93 480.06l-309.88 0 -50.8 111.76 -121.07 0 265.85 -592.67 121.92 0 265.86 592.67 -121.92 0 -49.96 -111.76zm-44.87 -104.14l-110.07 -252.31 -110.07 252.31 220.14 0zm27.94 -557.96l-121.92 0 -62.66 115.15 0 5.08 91.44 0 93.14 -115.99 0 -4.24z"/>
    <path class="fil0" d="M1776.64 1196.06c9.77,-104.4 -43.21,-156.86 -128.07,-156.86 -82.29,0 -134.75,55.54 -134.75,132.69 0,81.26 51.94,135.27 139.38,135.27 38.57,0 82.29,-13.38 109.03,-41.15l-40.11 -39.6c-14.4,14.91 -44.75,23.66 -67.89,23.66 -44.23,0 -71.49,-22.63 -75.61,-54.01l198.02 0zm-196.99 -51.94c9.26,-32.92 37.03,-49.38 70.98,-49.38 36,0 61.72,16.46 65.83,49.38l-136.81 0zm494.78 156.35l0 -133.21c0,-79.72 -47.83,-124.46 -107.49,-124.46 -31.89,0 -57.61,12.85 -83.32,38.06l-4.12 -34.46 -56.06 0 0 254.07 62.23 0 0 -129.61c0,-38.57 26.23,-70.97 64.81,-70.97 40.11,0 61.2,29.31 61.2,67.89l0 132.69 62.75 0zm305.51 -104.41c9.77,-104.4 -43.21,-156.86 -128.07,-156.86 -82.29,0 -134.75,55.54 -134.75,132.69 0,81.26 51.94,135.27 139.38,135.27 38.57,0 82.29,-13.38 109.03,-41.15l-40.11 -39.6c-14.4,14.91 -44.75,23.66 -67.89,23.66 -44.23,0 -71.49,-22.63 -75.61,-54.01l198.02 0zm-196.99 -51.94c9.26,-32.92 37.03,-49.38 70.98,-49.38 36,0 61.72,16.46 65.83,49.38l-136.81 0zm245.33 -97.21l0 253.56 62.75 0 0 -133.72c0,-46.81 30.34,-64.29 63.26,-64.29 20.57,0 32.4,5.65 45.26,16.46l28.29 -54.52c-13.89,-13.89 -39.09,-24.18 -65.32,-24.18 -25.72,0 -51.95,4.63 -71.49,36.01l-4.63 -29.32 -58.12 0zm397.05 6.17c-17.48,-11.83 -38.06,-14.4 -58.12,-14.4 -70.97,0 -128.58,49.38 -128.58,128.58 0,79.21 49.38,127.55 128.58,127.55 31.38,0 64.29,15.95 64.29,50.92 0,34.97 -28.28,54.52 -64.29,54.52 -36,0 -66.34,-21.6 -66.34,-54.52l-62.24 0c0,68.4 55.04,113.15 128.58,113.15 73.55,0 127.04,-43.2 127.04,-113.15 0,-32.4 -10.28,-62.75 -52.46,-83.83 41.66,-19.03 53.49,-63.27 53.49,-94.64 0,-27.77 -7.2,-52.97 -26.74,-75.09l28.28 -36 -46.29 -34.98 -25.2 31.89zm-58.12 42.69c36.01,0 65.84,27.77 65.84,71.49 0,43.72 -29.83,70.46 -65.84,70.46 -36.51,0 -66.34,-26.23 -66.34,-70.46 0,-44.23 29.83,-71.49 66.34,-71.49zm359.51 -48.86l-46.29 111.09 -26.23 69.95 -24.18 -71.49 -38.57 -109.55 -73.03 0 101.32 249.45 -47.32 110.06 68.92 0 154.81 -359.51 -69.43 0z"/>
   </g>
   <polygon class="fil1" points="1189.84,69.14 1242.75,69.14 1242.75,1482.42 1189.84,1482.42 "/>
   <path class="fil2" d="M367.15 5.88c49.08,-7.62 99.21,-6.52 148.38,-0.32 75.1,9.75 148.74,36.34 209.86,81.55 88.87,65.03 148.92,166.51 167.14,274.73 8.81,51.37 5.28,104.14 -4.07,155.17 -15.84,85.05 -49.93,165.36 -87.86,242.67 -16.11,33.43 -33.77,66.13 -48.33,100.26 -12.99,33.69 -20.86,69.06 -28.63,104.2 -18.56,87.8 -32.11,176.54 -44.38,265.39 -0.97,8.99 -8.9,16.31 -17.87,16.85 -88.13,9.71 -176.13,21.19 -263.47,36.61 -30.72,5.64 -61.51,11.35 -91.55,20.02 20.76,3.69 41.82,5.1 62.85,6.4 10.13,1.06 19.68,-3.14 29.46,-5.07 61.28,-13.96 123.43,-24.52 186.11,-29.44 19.75,-1.04 40.09,-2.81 59.43,2.38 14,3.28 21.69,20.67 15.13,33.35 -5.71,11.93 -19.08,16.83 -30.79,20.83 -28.76,8.88 -58.87,12.22 -88.74,14.99 -50,4.11 -100.26,4.94 -150.38,2.81 -9.01,-0.72 -17.48,2.94 -26.06,5.07 -20.63,6.03 -41.64,11.87 -60.43,22.63 21.37,6.77 43.98,7.89 66.18,9.22 9.62,0.15 19.42,1.79 28.94,-0.3 40.2,-9.95 80.86,-18.06 121.78,-24.44 28.98,-4.32 58.11,-8.32 87.45,-8.7 11.82,0.22 24.86,0.9 34.56,8.54 11.08,8.81 9.82,28.02 -1.73,35.93 -14.15,9.89 -31.75,12.58 -48.31,15.89 -63.86,10.58 -128.76,13.5 -193.41,13.55 -29.59,7.03 -59.39,15.3 -86.69,28.99 34.65,9.88 71.03,10.96 106.8,12.62 32.29,0.9 64.63,0.68 96.88,-1.28 6.29,-0.09 11.23,-4.45 16.56,-7.19 20.49,-11.35 41.57,-22.24 64.33,-28.24 10.05,-2.34 21.22,-4.23 30.9,0.42 16.11,7.64 20.04,32.25 7.3,44.65 -8.54,8.52 -20.11,13.01 -31.37,16.68 -21.28,6.49 -43.48,9.39 -65.57,11.48 -3.23,0.14 -6.18,1.53 -8.85,3.21 -20.32,12.45 -40.31,25.42 -59.91,38.99 -6.04,4.54 -14.56,5.42 -21.26,1.84 -8.54,-4.27 -12.85,-15.14 -9.57,-24.09 2.61,-8.15 10.94,-11.95 17.35,-16.67 -45.21,-0.11 -90.83,-1.14 -135.26,-10.27 -16.96,-4.04 -34.96,-8.54 -48.13,-20.65 -8.76,-7.89 -9.78,-21.35 -5.96,-31.86 7.04,-14.14 22.16,-21.37 35.6,-28.14 -13.15,-3.64 -26.94,-8.31 -36.29,-18.76 -9.24,-9.93 -10.11,-26.2 -2.54,-37.33 6.72,-9.91 17.37,-16.04 27.53,-21.86 -13.15,-3.03 -27.24,-6.34 -37.15,-16.11 -9.59,-8.99 -11.37,-26.54 -1.26,-35.78 9.87,-9.14 22.77,-13.95 35.17,-18.58 30.29,-10.54 61.8,-17.12 93.21,-23.3 86.69,-16.36 174.36,-26.83 261.99,-36.77 12.52,-90.08 26.57,-180.06 46.3,-268.89 9.37,-40.13 18.89,-80.74 37.32,-117.88 30.49,-63.53 63.93,-125.8 88.81,-191.86 17.75,-46.68 31.91,-94.94 38.83,-144.47 5.19,-37.62 6.76,-76.05 0.63,-113.66 -12.9,-81.21 -51.82,-158.27 -110.18,-216.27 -44.13,-44.13 -99.64,-76.33 -159.23,-94.53 -52.11,-16.03 -107.01,-22.16 -161.41,-20.72 -72.41,2.09 -144.05,25.19 -203.75,66.22 -66.92,45.57 -119.57,110.81 -153.35,184.13 -17.88,39.46 -31.07,81.69 -33.5,125.17 -2.56,85.25 18.94,169.7 53.28,247.25 19.59,44.72 42.94,87.7 68.04,129.55 35.84,58.02 61.1,121.97 80.4,187.2 16.32,55.67 28.45,112.54 36.45,170 56.74,0.02 113.46,0 170.18,0.02 0.04,-37.19 0,-74.38 0.02,-111.57 2.02,-74.85 -10.02,-149.09 -23.53,-222.44 -27.39,6.36 -56.62,2.92 -82.11,-8.85 -36.33,-16.68 -66.04,-46.57 -84.22,-82.02 -14.13,-27.76 -21.37,-59.94 -15.73,-90.92 4.94,-28.05 17.39,-55.67 38.9,-74.88 16.36,-14.76 38.85,-23.23 60.94,-20.38 19.39,2.18 36.74,13.66 48.67,28.79 12.81,15.75 19.44,35.25 25.96,54.2 14.63,44.2 25.57,89.48 35.7,134.89 22.9,-22 39.28,-49.57 54.97,-76.87 22.38,-39.15 41.23,-80.31 65.93,-118.11 12.49,-18.29 26.97,-37.39 48.43,-45.48 15.97,-6.18 34.51,-1.91 47.55,8.74 15.52,11.84 25.07,30.81 25.68,50.29 1.26,27.05 -9.89,52.83 -22.99,75.86 -21.91,37.46 -51.12,70.07 -82.24,100.07 -32.59,30.94 -67.91,59.19 -106.4,82.44 -4.43,3.06 -9.76,3.91 -14.99,4.25 9.23,53.8 17.28,107.98 19.01,162.6 0.15,56.09 0.04,112.18 0.07,168.27 0.96,11.75 -10.09,21.84 -21.64,20.7 -67.44,0.06 -134.86,-0.03 -202.27,0.04 -6.18,0.11 -12.83,-1.01 -17.26,-5.69 -7.23,-6.76 -6,-17.5 -7.64,-26.4 -11.05,-77.86 -29.17,-154.92 -56.36,-228.78 -14.69,-39.53 -32.35,-78.07 -54.49,-114 -37.35,-62.13 -71.14,-126.8 -94.83,-195.48 -16.87,-48.85 -28.11,-99.77 -31.77,-151.36 -2.07,-29.6 -2.63,-59.55 2.6,-88.88 11.62,-67.7 40.66,-131.75 79.89,-187.83 43.14,-61.4 100.67,-113.17 168.04,-146.58 38.43,-19.08 79.82,-32.12 122.22,-38.65zm250.4 555.08l0 0c-11.01,11.15 -19.26,24.61 -27.41,37.89 -25.58,43.1 -46.39,88.9 -73.26,131.23 -16.99,26.74 -36.65,52.7 -63.12,70.72 39.25,-22.61 74.58,-51.57 107.14,-82.97 26.56,-26.2 51.59,-54.44 70.45,-86.78 9.08,-16.36 17.66,-34.16 17.37,-53.3 -0.09,-10.52 -6.65,-21.35 -16.86,-24.74 -5.75,0.06 -10.31,4.29 -14.31,7.95zm-299.21 18.07l0 0c-15.86,4.65 -27.34,18.18 -34.49,32.54 -9.5,19.79 -13.57,42.74 -8.54,64.36 7.87,35.66 31.19,67.18 61.66,86.94 21.19,13.82 47.75,20.72 72.68,14.27 -10.34,-48.54 -21.91,-96.94 -37.69,-144.05 -5.86,-16.13 -10.85,-33.66 -23.73,-45.79 -7.71,-7.6 -19.3,-11.46 -29.89,-8.27z"/>
  </g>
 </g>
</svg>
